# xmcd
#
# Track frame offsets:
#	150
#	20140
#	39412
#	61755
#	81737
#	102835
#	118432
#	133190
#	157380
#	176992
#	196107
#	217445
#	240625
#	259982
#	281907
#	300230
#	318015
#	335700
#
# Disc length: 4482
#
# Revision: 1
# Processed by: cddbd v1.5.1PL0 Copyright (c) Steve Scherf et al.
# Submitted via: CDex 1.50
# Normalized: r0:DSETVAR1,TDELIM( - )
#
DISCID=20118012
DTITLE=Various Artist - Best of World Music
DYEAR=2000
DGENRE=New Age
TTITLE0=Enya - Orinoco Flow
TTITLE1=Era - Ameno
TTITLE2=Mike Oldfield - Tubular Bells (Part 1 Edit)
TTITLE3=Chips Davis and Mannheim Steamroller - Toccata
TTITLE4=Art fo Noise - Moments in Love
TTITLE5=Libera - Salva Me
TTITLE6=Jean Michel Jarre - Oxigene (Part IV)
TTITLE7=Roberto Perera - Erotica
TTITLE8=Caroline Lavelle - Moorlough Shore
TTITLE9=Enigma - Sadeness
TTITLE10=Ottmar Liebert and Luna Negra - When I´m With Everything I Ever Needed
TTITLE11=Pete Bardens - Black Elk
TTITLE12=David lanz and Pail Speer - Rain Forest
TTITLE13=Vangelis - Conquest of Paradise
TTITLE14=Emil Montgomery - Lajun Chaan
TTITLE15=Beautiful World - In The Beginning
TTITLE16=Angelit - Cilli Geres (Gossiping Woman)
TTITLE17=Deep Forest - Sweet Lullaby
EXTD=YEAR: 2000
EXTT0=
EXTT1=
EXTT2=
EXTT3=
EXTT4=
EXTT5=
EXTT6=
EXTT7=
EXTT8=
EXTT9=
EXTT10=
EXTT11=
EXTT12=
EXTT13=
EXTT14=
EXTT15=
EXTT16=
EXTT17=
PLAYORDER=
